<svg width="512" height="512" viewBox="0 0 512 512" fill="none" xmlns="http://www.w3.org/2000/svg">
  <rect width="512" height="512" rx="115" fill="#142544"/>
  <path fill-rule="evenodd" fill="#ffffff" d="M 45 255.940 L 45 390 69.961 390 L 94.921 390 95.211 345.750 C 95.495 302.312, 95.540 301.424, 97.706 297.376 C 102.846 287.768, 110.904 284.605, 128.857 285.148 C 145.566 285.653, 149.458 287.683, 159.255 301 C 166.948 311.457, 167.846 312.738, 192.567 348.500 C 213.518 378.807, 215.876 381.301, 229 387.025 C 234.316 389.343, 235.451 389.433, 263 389.723 L 291.500 390.022 284.748 386.381 C 280.430 384.052, 275.744 380.328, 271.748 376.049 C 266.606 370.543, 206.114 284.848, 205.643 282.403 C 205.565 281.993, 208.442 280.451, 212.039 278.978 C 242.136 266.642, 259.083 239.848, 259.047 204.650 C 259.005 162.660, 236.732 134.177, 196.233 124.324 C 190.401 122.905, 179.836 122.632, 117.250 122.283 L 45 121.881 45 255.940 M 94.990 205.750 L 94.979 241.500 88.264 246.500 C 75.234 256.201, 65.089 271.510, 60.940 287.735 C 58.119 298.766, 58.581 299.617, 62.348 290.329 C 72.099 266.287, 91.787 249.227, 115.986 243.848 C 118.469 243.296, 133.775 242.496, 150 242.069 C 182.127 241.223, 185.530 240.648, 194.840 234.487 C 212.352 222.898, 213.283 191.369, 196.491 178.561 C 186.490 170.932, 179.593 170, 133.168 170 L 95 170 94.990 205.750"/>
  <path fill-rule="evenodd" fill="#ee3a32" d="M 451 123.041 C 434.622 125, 419.482 133.647, 410.073 146.414 C 406.378 151.427, 403.289 158.244, 398.935 171 C 397.714 174.575, 396.260 178.625, 395.704 180 C 395.148 181.375, 394.574 182.950, 394.429 183.500 C 394.283 184.050, 392.737 188.325, 390.993 193 C 389.249 197.675, 387.463 202.625, 387.024 204 C 386.586 205.375, 385.231 208.975, 384.013 212 C 382.795 215.025, 379.872 222.900, 377.517 229.500 C 375.163 236.100, 371.206 246.900, 368.725 253.500 C 366.244 260.100, 361.662 272.475, 358.542 281 C 355.423 289.525, 351.732 299.425, 350.339 303 C 348.947 306.575, 347.150 311.525, 346.346 314 C 345.542 316.475, 344.647 319.175, 344.358 320 C 343.744 321.747, 343.589 321.363, 326.803 276.500 C 325.156 272.100, 323.436 267.600, 322.980 266.500 C 321.936 263.984, 314.697 244.775, 311.297 235.500 C 309.886 231.650, 308.151 227.150, 307.442 225.500 C 306.733 223.850, 304.731 218.675, 302.993 214 C 280.790 154.280, 279.552 151.578, 269.629 141.212 C 258.781 129.879, 242.623 123.018, 227 123.109 L 220.500 123.147 224.546 124.706 C 243.482 132.001, 263.762 158.204, 267.524 180.235 C 267.830 182.031, 268.457 184.890, 268.916 186.589 C 270.111 191.014, 270.035 216.755, 268.813 221.500 C 268.246 223.700, 267.584 226.587, 267.341 227.917 C 266.733 231.251, 263.642 239.898, 261.807 243.400 C 260.177 246.510, 260.547 247.985, 266.981 264 C 268.196 267.025, 269.338 270.240, 269.517 271.144 C 269.697 272.048, 271.004 275.324, 272.422 278.423 C 273.840 281.523, 274.998 284.383, 274.996 284.780 C 274.993 285.176, 276.749 290, 278.898 295.500 C 283.486 307.241, 284.211 309.160, 284.570 310.500 C 284.717 311.050, 285.999 314.304, 287.419 317.730 C 288.838 321.157, 290 324.424, 290 324.991 C 290 325.558, 290.851 327.929, 291.891 330.261 C 294.393 335.872, 299.121 348.111, 299.515 350 C 301.012 357.159, 307.749 369.565, 313.533 375.813 C 322.322 385.306, 328.975 388.338, 342.077 388.822 C 356.037 389.339, 366.029 384.615, 375.232 373.149 C 379.539 367.783, 381.746 362.390, 395.549 323.500 C 398.672 314.700, 403.243 301.875, 405.705 295 C 408.167 288.125, 410.556 281.375, 411.013 280 C 411.470 278.625, 413.718 272.325, 416.009 266 C 424.022 243.871, 428.866 230.297, 437.954 204.500 C 442.992 190.200, 447.956 176.250, 448.985 173.500 C 450.013 170.750, 452.194 164.675, 453.831 160 C 468.200 118.953, 467.107 123.471, 462.875 122.625 C 461.156 122.281, 459.244 122.059, 458.625 122.131 C 458.006 122.204, 454.575 122.613, 451 123.041"/>
</svg>
